<?xml version="1.0" encoding="UTF-8"?>
<svg id="Calque_1" data-name="Calque 1" xmlns="http://www.w3.org/2000/svg" viewBox="0 0 512 512">
  <defs>
    <style>
      .cls-1 {
        fill: #575756;
      }

      .cls-2 {
        fill: #b2b2b2;
      }

      .cls-3 {
        fill: #706f6f;
      }

      .cls-4 {
        fill: #878787;
      }
    </style>
  </defs>
  <polygon class="cls-3" points="384 34.3 128 34.3 0 256 128 477.7 384 477.7 512 256 384 34.3"/>
  <g>
    <polygon class="cls-4" points="376 48.15 136 48.15 16 256 136 463.85 376 463.85 496 256 376 48.15"/>
    <polygon class="cls-1" points="43.06 209.12 16 256 43.06 302.88 468.94 302.88 496 256 468.94 209.12 43.06 209.12"/>
    <polygon class="cls-3" points="43.06 209.12 468.94 209.12 458.11 190.38 53.89 190.38 43.06 209.12"/>
    <polygon class="cls-2" points="53.89 321.62 458.11 321.62 468.94 302.88 43.06 302.88 53.89 321.62"/>
    <polygon class="cls-3" points="53.89 321.62 136 463.85 376 463.85 391.7 436.65 265.38 443.46 141.87 416.89 98.79 346.52 53.89 321.62"/>
    <polygon class="cls-2" points="136 48.15 121.27 73.66 208.65 90.88 352.99 80.11 398.95 151.2 458.11 190.38 376 48.15 136 48.15"/>
  </g>
  <polygon class="cls-1" points="128 34.3 136 48.15 376 48.15 496 256 512 256 384 34.3 128 34.3"/>
  <polygon class="cls-2" points="0 256 16 256 136 463.85 376 463.85 384 477.7 128 477.7 0 256"/>
</svg>