<?xml version="1.0" encoding="UTF-8"?>
<svg id="Calque_1" data-name="Calque 1" xmlns="http://www.w3.org/2000/svg" viewBox="0 0 512 512">
  <defs>
    <style>
      .cls-1 {
        fill: #fff;
      }
    </style>
  </defs>
  <g>
    <path d="M88.46,434.64c-26.19,0-42.46-17.15-42.46-44.76s12.12-49.54,31.67-78.53l46.4-69.94c16.77-25.62,25.3-41.74,25.3-58.6s-9.7-28.18-25.96-28.18c-24.41,0-39.77,10.09-49.78,32.72l-2.63,5.95h-6.51c-6.89,0-12.5-5.61-12.5-12.5v-21.49c0-43.96,29.03-88.32,93.9-88.32,26.53,0,49.37,8.97,66.06,25.93,17.89,18.18,27.34,44.67,27.34,76.58,0,18.92-7.91,52.64-30.2,85.41l-58.01,86.27c-1.31,1.87-2.51,3.63-3.61,5.31h95.31v39.86c0,25.65-17.86,44.27-42.46,44.27h-111.86Z"/>
    <path class="cls-1" d="M145.89,81c45.94,0,83.4,30.35,83.4,92.52,0,17.13-7.49,48.95-28.46,79.79l-57.93,86.15c-5.49,7.83-8.99,13.71-12.98,21.05h102.87v29.86c0,21.54-14.98,34.27-32.46,34.27h-111.86c-19.48,0-32.46-11.26-32.46-34.76,0-22.03,9.49-42.59,29.96-72.94l46.44-70c16.98-25.94,26.97-44.06,26.97-64.13,0-23.5-14.48-38.18-35.96-38.18-28.96,0-47.44,12.73-58.93,38.67-1.38,0-2.5-1.12-2.5-2.5v-21.49c0-42.59,28.46-78.32,83.9-78.32M145.89,61c-31.57,0-58.19,10.08-76.98,29.15-17.36,17.62-26.91,42.18-26.91,69.17v21.49c0,12.4,10.09,22.5,22.5,22.5h13.02l5.27-11.9c8.53-19.26,19.92-26.77,40.64-26.77,10.59,0,15.96,6.12,15.96,18.18,0,14.33-7.97,29.13-23.67,53.12l-46.37,69.88c-20.58,30.52-33.34,55.23-33.34,84.05,0,33.26,20.59,54.76,52.46,54.76h111.86c14.1,0,27.19-5.27,36.86-14.85,10.06-9.97,15.6-23.96,15.6-39.42v-49.86h-86.49l51.11-76.01c23.54-34.63,31.89-70.65,31.89-90.98,0-34.6-10.45-63.5-30.21-83.6-9.44-9.6-20.75-16.96-33.62-21.89-12.2-4.67-25.51-7.03-39.56-7.03h0Z"/>
  </g>
  <g>
    <path d="M364.11,441c-60.38,0-97.89-42.28-97.89-110.35,0-29.44,12.04-59.23,30.84-78.09-18.47-17.34-28.84-42.8-28.84-71.7,0-32.42,9.76-60.02,28.22-79.82,17.77-19.06,42.87-29.55,70.67-29.55s51.35,10.22,68.88,28.77c18.33,19.4,28.01,46.25,28.01,77.66s-9.91,56.77-28.16,73.72c18.39,18.39,30.16,47.53,30.16,76.56,0,32.64-8.3,60.14-24.01,79.54-17.63,21.76-44.55,33.26-77.87,33.26ZM365.61,291.7c-5.79,0-14.97,9.25-14.97,34.06,0,36.99,11.6,36.99,15.97,36.99,4.09,0,14.97,0,14.97-34.54,0-25.08-8.28-36.5-15.97-36.5ZM365.61,150.72c-5.38,0-7.5,2-8.99,4.17-2.27,3.31-4.98,10.5-4.98,25.97,0,7.87,1.01,33.57,13.97,33.57,10.68,0,14.47-17.03,14.47-31.61,0-32.1-9.41-32.1-14.47-32.1Z"/>
    <path class="cls-1" d="M367.11,81.49c48.44,0,86.89,36.22,86.89,96.43,0,34.27-12.98,59.72-33.96,73.43,20.97,14.69,35.96,46.01,35.96,76.85,0,58.25-27.47,102.8-91.89,102.8-57.93,0-87.89-41.61-87.89-100.35,0-32.31,15.98-63.64,36.45-78.32-19.98-13.71-34.46-38.67-34.46-71.47,0-62.17,38.45-99.37,88.89-99.37M365.61,224.43c15.48,0,24.47-16.64,24.47-41.61,0-32.8-9.99-42.1-24.47-42.1s-23.97,9.3-23.97,40.14,10.99,43.57,23.97,43.57M366.61,372.75c14.98,0,24.97-11.26,24.97-44.55s-12.48-46.5-25.97-46.5c-12.48,0-24.97,14.2-24.97,44.06,0,35.24,10.49,46.99,25.97,46.99M367.11,61.49c-30.61,0-58.31,11.62-77.99,32.73-20.22,21.68-30.9,51.64-30.9,86.64,0,18.9,4,36.38,11.9,51.94,3.67,7.24,8.17,13.95,13.36,19.96-16.82,20.62-27.26,49.45-27.26,77.89,0,34.45,9.28,63.83,26.83,84.98,19.21,23.14,47.24,35.37,81.06,35.37,36.44,0,66.05-12.78,85.64-36.97,17.17-21.2,26.24-50.88,26.24-85.83,0-27.99-10.15-56.16-26.54-76.32,5.3-6.18,9.81-13.18,13.5-20.96,7.33-15.44,11.05-33.27,11.05-53,0-34.01-10.63-63.24-30.74-84.53-19.44-20.57-46.48-31.9-76.15-31.9h0ZM364.73,160.76c.21-.02.5-.04.88-.04.53,0,.91.03,1.16.06.81,1.33,3.31,6.68,3.31,22.04,0,12.92-2.89,19.16-4.38,21.17-1.49-2.29-4.06-9.12-4.06-23.13s2.31-18.81,3.09-20.1h0ZM365.34,352.64c-.61-.69-4.7-6.13-4.7-26.89,0-14.12,3.38-20.98,5.3-23.38,1.96,2.32,5.64,9.63,5.64,25.83,0,17.82-3.29,23.43-4.06,24.49-.19.03-.48.05-.9.05-.69,0-1.09-.07-1.27-.11h0Z"/>
  </g>
</svg>